<?xml version="1.0" encoding="utf-8"?>
<!-- Generator: Adobe Illustrator 27.5.0, SVG Export Plug-In . SVG Version: 6.00 Build 0)  -->
<svg version="1.1" id="Layer_1" xmlns="http://www.w3.org/2000/svg" xmlns:xlink="http://www.w3.org/1999/xlink" x="0px" y="0px"
	 viewBox="0 0 212.61 74.92" style="enable-background:new 0 0 212.61 74.92;" xml:space="preserve">
<style type="text/css">
	.st0{fill:none;stroke:#000000;stroke-width:2;stroke-miterlimit:10;}
	.st1{fill:none;stroke:#000000;stroke-miterlimit:10;}
</style>
<g>
	<path d="M39.6,15.98l7.82,27.59l7.74-27.59h-5.01v-5.23h19.27v5.23h-4.96l7.66,27.59l7.85-27.59h-4.96v-5.23h15.4v5.23h-4.84
		L74.96,53.15h-5.93l-9.47-33.41l-9.41,33.41h-5.87L33.56,15.98H28.6v-5.23h16.04v5.23H39.6z"/>
	<path d="M115.27,13.37V10.5h5.12v12.72h-5.12v-2.9c-2.17-3.27-5.14-4.9-8.91-4.9c-2.3,0-4.07,0.46-5.29,1.39
		c-1.23,0.93-1.84,2.26-1.84,4.01c0,1.67,0.58,2.94,1.74,3.81c1.16,0.87,2.94,1.61,5.33,2.23l4.93,1.31
		c3.14,0.84,5.54,1.94,7.22,3.31s2.78,2.83,3.29,4.37c0.51,1.54,0.77,3.26,0.77,5.15c0,3.81-1.19,6.82-3.56,9.05
		c-2.38,2.23-5.56,3.34-9.55,3.34c-3.8,0-7.27-1.39-10.38-4.18v3.48h-5.23V37.42h5.23v3.7c2.51,4.6,5.77,6.9,9.8,6.9
		c2.36,0,4.19-0.61,5.48-1.82s1.95-2.93,1.95-5.14c0-3.01-2.12-5.1-6.35-6.26l-5.23-1.48c-3.77-1.08-6.55-2.53-8.35-4.37
		c-1.8-1.84-2.7-4.26-2.7-7.27c0-3.69,1.09-6.56,3.27-8.59c2.18-2.03,5.19-3.05,9.03-3.05C109.26,10.05,112.38,11.16,115.27,13.37z"
		/>
	<path d="M163.25,15.37v-4.62h5.35v13.78h-5.35c-1.22-2.69-3.16-4.84-5.8-6.46c-2.65-1.62-5.42-2.42-8.34-2.42
		c-2.9,0-5.48,0.68-7.74,2.05s-4.02,3.24-5.28,5.64c-1.25,2.39-1.88,5.11-1.88,8.16c0,3.19,0.66,6.02,1.98,8.49
		c1.32,2.47,3.15,4.39,5.5,5.76c2.35,1.37,5.03,2.06,8.03,2.06c2.28,0,4.4-0.42,6.36-1.25c1.96-0.83,3.58-2.02,4.87-3.56
		s2.09-3.3,2.41-5.29h-7.71v-5.29h15.29v1.36c0,3.99-0.91,7.47-2.73,10.44s-4.33,5.24-7.53,6.82c-3.2,1.58-6.8,2.37-10.79,2.37
		c-4.55,0-8.53-0.91-11.96-2.74c-3.42-1.83-6.05-4.38-7.88-7.67c-1.83-3.29-2.74-7.1-2.74-11.44c0-4.14,0.91-7.84,2.74-11.11
		c1.83-3.27,4.35-5.81,7.56-7.64c3.21-1.83,6.85-2.74,10.91-2.74C154.27,10.05,159.18,11.83,163.25,15.37z"/>
	<path d="M207.35,23.7c0,3.82-1.18,6.92-3.54,9.3s-6.35,3.58-11.97,3.62h-5.51v10.86h5.46v5.23h-17.04v-5.23h5.23V15.98h-5.23v-5.23
		h15.62c4.21,0,7.56,0.46,10.04,1.36c2.48,0.91,4.26,2.3,5.33,4.16C206.81,18.14,207.35,20.62,207.35,23.7z M200.92,23.56
		c0-2.62-0.77-4.53-2.31-5.75c-1.54-1.22-4.18-1.82-7.91-1.82h-4.37v15.56h3.93c2.58,0,4.64-0.24,6.18-0.71
		c1.54-0.47,2.67-1.29,3.4-2.45C200.55,27.23,200.92,25.62,200.92,23.56z"/>
</g>
<g>
	<path d="M30.13,59.73l2.35,6.03l2.45-6.47l2.35,6.47l2.49-6.03h1.48l-4.03,9.59l-2.32-6.39l-2.42,6.4l-3.83-9.6H30.13z"/>
	<path d="M42.12,58.88h1.31v4.65c0.47-0.42,0.98-0.63,1.55-0.63c0.64,0,1.16,0.21,1.54,0.62c0.33,0.36,0.49,0.94,0.49,1.74v3.49
		H45.7v-3.36c0-0.46-0.08-0.79-0.24-0.99c-0.16-0.21-0.42-0.31-0.78-0.31c-0.46,0-0.78,0.14-0.97,0.43
		c-0.18,0.29-0.27,0.78-0.27,1.48v2.75h-1.31V58.88z"/>
	<path d="M48.48,60.69c0-0.23,0.08-0.43,0.25-0.6c0.17-0.17,0.37-0.25,0.6-0.25c0.24,0,0.44,0.08,0.61,0.25
		c0.17,0.16,0.25,0.36,0.25,0.6c0,0.24-0.08,0.44-0.25,0.61c-0.16,0.17-0.36,0.25-0.6,0.25c-0.24,0-0.44-0.08-0.61-0.25
		C48.56,61.14,48.48,60.93,48.48,60.69z M49.99,63.06v5.69h-1.31v-5.69H49.99z"/>
	<path d="M53.01,64.28v4.46H51.7v-4.46h-0.56v-1.23h0.56v-2.09h1.31v2.09h1.02v1.23H53.01z"/>
	<path d="M60.21,66.21h-4.08c0.04,0.47,0.19,0.84,0.46,1.12c0.27,0.27,0.61,0.41,1.03,0.41c0.33,0,0.6-0.08,0.81-0.23
		c0.21-0.16,0.45-0.44,0.72-0.86l1.11,0.62c-0.17,0.29-0.35,0.54-0.54,0.75c-0.19,0.21-0.4,0.38-0.61,0.51
		c-0.22,0.13-0.45,0.23-0.71,0.29c-0.25,0.06-0.53,0.09-0.82,0.09c-0.85,0-1.53-0.27-2.04-0.82c-0.51-0.55-0.77-1.28-0.77-2.18
		c0-0.9,0.25-1.63,0.75-2.18c0.5-0.55,1.17-0.82,2-0.82c0.84,0,1.5,0.27,1.99,0.8c0.48,0.53,0.72,1.26,0.72,2.2L60.21,66.21z
		 M58.87,65.14c-0.18-0.7-0.62-1.05-1.33-1.05c-0.16,0-0.31,0.02-0.45,0.07c-0.14,0.05-0.27,0.12-0.38,0.21
		c-0.11,0.09-0.21,0.2-0.29,0.33c-0.08,0.13-0.14,0.27-0.19,0.44H58.87z"/>
	<path d="M70.69,61.07l-1.1,0.65c-0.21-0.36-0.4-0.59-0.59-0.7c-0.19-0.12-0.45-0.19-0.75-0.19c-0.38,0-0.69,0.11-0.94,0.32
		c-0.25,0.21-0.37,0.47-0.37,0.79c0,0.44,0.33,0.79,0.98,1.06l0.9,0.37c0.73,0.3,1.27,0.66,1.61,1.08c0.34,0.43,0.51,0.95,0.51,1.57
		c0,0.83-0.28,1.52-0.83,2.06c-0.56,0.54-1.25,0.82-2.07,0.82c-0.78,0-1.43-0.23-1.94-0.69c-0.5-0.46-0.82-1.12-0.94-1.96l1.38-0.3
		c0.06,0.53,0.17,0.9,0.33,1.1c0.28,0.39,0.69,0.58,1.23,0.58c0.42,0,0.78-0.14,1.06-0.43s0.42-0.64,0.42-1.08
		c0-0.17-0.02-0.34-0.07-0.48c-0.05-0.15-0.12-0.28-0.23-0.4c-0.1-0.12-0.24-0.24-0.4-0.34s-0.36-0.21-0.58-0.31l-0.87-0.36
		c-1.23-0.52-1.85-1.29-1.85-2.29c0-0.68,0.26-1.24,0.78-1.7c0.52-0.46,1.16-0.69,1.93-0.69C69.3,59.55,70.11,60.06,70.69,61.07z"/>
	<path d="M72.32,58.88h1.31v4.65c0.47-0.42,0.98-0.63,1.55-0.63c0.64,0,1.16,0.21,1.54,0.62c0.33,0.36,0.49,0.94,0.49,1.74v3.49
		H75.9v-3.36c0-0.46-0.08-0.79-0.24-0.99c-0.16-0.21-0.42-0.31-0.78-0.31c-0.46,0-0.78,0.14-0.97,0.43
		c-0.18,0.29-0.27,0.78-0.27,1.48v2.75h-1.31V58.88z"/>
	<path d="M84.06,66.21h-4.08c0.04,0.47,0.19,0.84,0.46,1.12c0.27,0.27,0.61,0.41,1.03,0.41c0.33,0,0.6-0.08,0.81-0.23
		c0.21-0.16,0.45-0.44,0.72-0.86l1.11,0.62c-0.17,0.29-0.35,0.54-0.54,0.75c-0.19,0.21-0.4,0.38-0.61,0.51
		c-0.22,0.13-0.45,0.23-0.71,0.29c-0.25,0.06-0.53,0.09-0.82,0.09c-0.85,0-1.53-0.27-2.04-0.82c-0.51-0.55-0.77-1.28-0.77-2.18
		c0-0.9,0.25-1.63,0.75-2.18c0.5-0.55,1.17-0.82,2-0.82c0.84,0,1.5,0.27,1.99,0.8c0.48,0.53,0.72,1.26,0.72,2.2L84.06,66.21z
		 M82.71,65.14c-0.18-0.7-0.62-1.05-1.33-1.05c-0.16,0-0.31,0.02-0.45,0.07c-0.14,0.05-0.27,0.12-0.38,0.21
		c-0.11,0.09-0.21,0.2-0.29,0.33c-0.08,0.13-0.14,0.27-0.19,0.44H82.71z"/>
	<path d="M86.81,71.84H85.5v-8.79h1.31v0.62c0.52-0.52,1.11-0.78,1.76-0.78c0.78,0,1.43,0.29,1.93,0.87
		c0.51,0.57,0.77,1.29,0.77,2.17c0,0.85-0.26,1.56-0.77,2.13c-0.51,0.56-1.14,0.85-1.92,0.85c-0.67,0-1.26-0.27-1.79-0.8V71.84z
		 M89.94,65.94c0-0.54-0.15-0.99-0.44-1.33c-0.3-0.35-0.68-0.52-1.13-0.52c-0.48,0-0.87,0.17-1.17,0.5s-0.45,0.78-0.45,1.32
		c0,0.53,0.15,0.97,0.45,1.32c0.3,0.34,0.69,0.51,1.17,0.51c0.46,0,0.83-0.17,1.13-0.51C89.78,66.88,89.94,66.45,89.94,65.94z"/>
	<path d="M92.67,58.88h1.31v4.65c0.47-0.42,0.98-0.63,1.55-0.63c0.64,0,1.16,0.21,1.54,0.62c0.33,0.36,0.49,0.94,0.49,1.74v3.49
		h-1.31v-3.36c0-0.46-0.08-0.79-0.24-0.99c-0.16-0.21-0.42-0.31-0.78-0.31c-0.46,0-0.78,0.14-0.97,0.43
		c-0.18,0.29-0.27,0.78-0.27,1.48v2.75h-1.31V58.88z"/>
	<path d="M104.41,66.21h-4.08c0.04,0.47,0.19,0.84,0.46,1.12c0.27,0.27,0.61,0.41,1.03,0.41c0.33,0,0.6-0.08,0.81-0.23
		c0.21-0.16,0.45-0.44,0.72-0.86l1.11,0.62c-0.17,0.29-0.35,0.54-0.54,0.75c-0.19,0.21-0.39,0.38-0.61,0.51
		c-0.22,0.13-0.45,0.23-0.71,0.29c-0.25,0.06-0.53,0.09-0.82,0.09c-0.85,0-1.53-0.27-2.04-0.82c-0.51-0.55-0.77-1.28-0.77-2.18
		c0-0.9,0.25-1.63,0.75-2.18c0.5-0.55,1.17-0.82,2-0.82c0.84,0,1.5,0.27,1.98,0.8c0.48,0.53,0.72,1.26,0.72,2.2L104.41,66.21z
		 M103.06,65.14c-0.18-0.7-0.62-1.05-1.32-1.05c-0.16,0-0.31,0.02-0.45,0.07c-0.14,0.05-0.27,0.12-0.38,0.21
		c-0.12,0.09-0.21,0.2-0.29,0.33c-0.08,0.13-0.14,0.27-0.19,0.44H103.06z"/>
	<path d="M105.85,63.06h1.31v0.51c0.24-0.25,0.46-0.43,0.64-0.52c0.19-0.1,0.42-0.15,0.68-0.15c0.35,0,0.71,0.11,1.09,0.34l-0.6,1.2
		c-0.25-0.18-0.49-0.27-0.73-0.27c-0.72,0-1.08,0.54-1.08,1.62v2.95h-1.31V63.06z"/>
	<path d="M114.43,58.88h1.32v9.87h-1.32v-0.6c-0.52,0.51-1.1,0.76-1.76,0.76c-0.78,0-1.43-0.28-1.94-0.85
		c-0.51-0.58-0.77-1.3-0.77-2.17c0-0.85,0.25-1.56,0.77-2.13c0.51-0.57,1.14-0.86,1.91-0.86c0.67,0,1.26,0.27,1.79,0.82V58.88z
		 M111.32,65.89c0,0.54,0.15,0.99,0.44,1.33c0.3,0.35,0.68,0.52,1.13,0.52c0.49,0,0.88-0.17,1.18-0.5c0.3-0.35,0.45-0.79,0.45-1.32
		s-0.15-0.97-0.45-1.32c-0.3-0.34-0.69-0.51-1.17-0.51c-0.45,0-0.83,0.17-1.13,0.51C111.47,64.95,111.32,65.38,111.32,65.89z"/>
	<path d="M125.99,64.05h3.73v0.3c0,0.68-0.08,1.28-0.24,1.8c-0.16,0.48-0.42,0.93-0.79,1.36c-0.84,0.94-1.9,1.41-3.2,1.41
		c-1.26,0-2.34-0.46-3.24-1.37c-0.9-0.92-1.35-2.01-1.35-3.29c0-1.31,0.46-2.42,1.37-3.33c0.92-0.92,2.03-1.37,3.34-1.37
		c0.71,0,1.36,0.14,1.97,0.43c0.58,0.29,1.16,0.76,1.72,1.4l-0.97,0.93c-0.74-0.99-1.64-1.48-2.71-1.48c-0.95,0-1.75,0.33-2.4,0.99
		c-0.65,0.65-0.97,1.46-0.97,2.43c0,1,0.36,1.83,1.08,2.48c0.67,0.6,1.4,0.91,2.19,0.91c0.67,0,1.27-0.23,1.81-0.68
		c0.53-0.46,0.83-1,0.89-1.64h-2.25V64.05z"/>
	<path d="M136.36,66.21h-4.08c0.04,0.47,0.19,0.84,0.46,1.12c0.27,0.27,0.61,0.41,1.03,0.41c0.33,0,0.6-0.08,0.81-0.23
		c0.21-0.16,0.45-0.44,0.72-0.86l1.11,0.62c-0.17,0.29-0.35,0.54-0.54,0.75c-0.19,0.21-0.4,0.38-0.61,0.51
		c-0.22,0.13-0.45,0.23-0.71,0.29s-0.53,0.09-0.82,0.09c-0.85,0-1.53-0.27-2.04-0.82c-0.51-0.55-0.77-1.28-0.77-2.18
		c0-0.9,0.25-1.63,0.75-2.18c0.5-0.55,1.17-0.82,2-0.82c0.84,0,1.5,0.27,1.99,0.8c0.48,0.53,0.72,1.26,0.72,2.2L136.36,66.21z
		 M135.01,65.14c-0.18-0.7-0.62-1.05-1.33-1.05c-0.16,0-0.31,0.02-0.45,0.07c-0.14,0.05-0.27,0.12-0.38,0.21
		c-0.12,0.09-0.21,0.2-0.29,0.33c-0.08,0.13-0.14,0.27-0.19,0.44H135.01z"/>
	<path d="M137.8,63.06h1.32v0.53c0.46-0.46,0.98-0.68,1.55-0.68c0.66,0,1.18,0.21,1.55,0.62c0.32,0.35,0.48,0.93,0.48,1.74v3.49
		h-1.32v-3.18c0-0.56-0.08-0.95-0.23-1.16c-0.15-0.22-0.43-0.33-0.83-0.33c-0.44,0-0.75,0.14-0.93,0.43
		c-0.18,0.28-0.27,0.78-0.27,1.49v2.75h-1.32V63.06z"/>
	<path d="M149.54,66.21h-4.08c0.04,0.47,0.19,0.84,0.46,1.12c0.27,0.27,0.61,0.41,1.03,0.41c0.33,0,0.6-0.08,0.81-0.23
		c0.21-0.16,0.45-0.44,0.72-0.86l1.11,0.62c-0.17,0.29-0.35,0.54-0.54,0.75c-0.19,0.21-0.4,0.38-0.61,0.51
		c-0.22,0.13-0.45,0.23-0.71,0.29s-0.53,0.09-0.82,0.09c-0.85,0-1.53-0.27-2.04-0.82c-0.51-0.55-0.77-1.28-0.77-2.18
		c0-0.9,0.25-1.63,0.75-2.18c0.5-0.55,1.17-0.82,2-0.82c0.84,0,1.5,0.27,1.99,0.8c0.48,0.53,0.72,1.26,0.72,2.2L149.54,66.21z
		 M148.19,65.14c-0.18-0.7-0.62-1.05-1.33-1.05c-0.16,0-0.31,0.02-0.45,0.07c-0.14,0.05-0.27,0.12-0.38,0.21
		c-0.12,0.09-0.21,0.2-0.29,0.33c-0.08,0.13-0.14,0.27-0.19,0.44H148.19z"/>
	<path d="M152.44,64.28v4.46h-1.31v-4.46h-0.56v-1.23h0.56v-2.09h1.31v2.09h1.02v1.23H152.44z"/>
	<path d="M154.16,60.69c0-0.23,0.08-0.43,0.25-0.6c0.17-0.17,0.37-0.25,0.6-0.25c0.24,0,0.44,0.08,0.61,0.25
		c0.17,0.16,0.25,0.36,0.25,0.6c0,0.24-0.08,0.44-0.25,0.61c-0.16,0.17-0.36,0.25-0.6,0.25c-0.24,0-0.44-0.08-0.61-0.25
		C154.24,61.14,154.16,60.93,154.16,60.69z M155.67,63.06v5.69h-1.31v-5.69H155.67z"/>
	<path d="M161.76,63.3v1.75c-0.3-0.37-0.57-0.62-0.81-0.75c-0.23-0.14-0.51-0.21-0.82-0.21c-0.5,0-0.91,0.17-1.23,0.52
		c-0.33,0.35-0.49,0.78-0.49,1.3c0,0.53,0.16,0.97,0.47,1.31c0.32,0.34,0.73,0.51,1.22,0.51c0.32,0,0.59-0.07,0.83-0.2
		c0.23-0.13,0.51-0.39,0.82-0.77v1.74c-0.53,0.28-1.07,0.41-1.6,0.41c-0.88,0-1.62-0.28-2.21-0.85c-0.59-0.57-0.89-1.28-0.89-2.13
		s0.3-1.57,0.9-2.15c0.6-0.58,1.34-0.88,2.21-0.88C160.73,62.9,161.26,63.03,161.76,63.3z"/>
	<path d="M166.34,64.03l-1.09,0.58c-0.17-0.35-0.38-0.53-0.64-0.53c-0.12,0-0.22,0.04-0.31,0.12c-0.08,0.08-0.13,0.18-0.13,0.31
		c0,0.22,0.25,0.43,0.76,0.65c0.7,0.3,1.17,0.58,1.41,0.83c0.24,0.25,0.36,0.59,0.36,1.02c0,0.55-0.2,1.01-0.61,1.38
		c-0.39,0.35-0.87,0.53-1.43,0.53c-0.95,0-1.63-0.46-2.03-1.4l1.12-0.52c0.16,0.27,0.27,0.45,0.36,0.52
		c0.16,0.15,0.35,0.22,0.57,0.22c0.44,0,0.67-0.2,0.67-0.61c0-0.23-0.17-0.45-0.51-0.65c-0.13-0.07-0.27-0.13-0.4-0.19
		c-0.13-0.06-0.27-0.13-0.4-0.19c-0.38-0.19-0.65-0.37-0.81-0.56c-0.2-0.24-0.3-0.54-0.3-0.92c0-0.49,0.17-0.9,0.51-1.23
		c0.35-0.32,0.77-0.49,1.26-0.49C165.45,62.9,165.99,63.28,166.34,64.03z"/>
	<path d="M173.19,65.08v3.66h-1.36v-9.02h1.54c0.75,0,1.33,0.05,1.71,0.16c0.39,0.1,0.73,0.3,1.03,0.6
		c0.52,0.51,0.78,1.14,0.78,1.92c0,0.83-0.28,1.48-0.83,1.96c-0.55,0.48-1.3,0.72-2.24,0.72H173.19z M173.19,63.82h0.51
		c1.25,0,1.88-0.48,1.88-1.44c0-0.93-0.64-1.4-1.93-1.4h-0.45V63.82z"/>
	<path d="M178.04,63.06h1.31v0.51c0.24-0.25,0.46-0.43,0.64-0.52c0.19-0.1,0.42-0.15,0.68-0.15c0.35,0,0.71,0.11,1.09,0.34l-0.6,1.2
		c-0.25-0.18-0.49-0.27-0.73-0.27c-0.72,0-1.08,0.54-1.08,1.62v2.95h-1.31V63.06z"/>
	<path d="M182.14,65.86c0-0.82,0.29-1.52,0.88-2.1c0.59-0.58,1.3-0.87,2.15-0.87c0.85,0,1.57,0.29,2.16,0.87
		c0.58,0.58,0.88,1.29,0.88,2.14c0,0.85-0.29,1.57-0.88,2.14c-0.59,0.57-1.32,0.86-2.18,0.86c-0.85,0-1.57-0.29-2.14-0.88
		C182.43,67.46,182.14,66.73,182.14,65.86z M183.49,65.89c0,0.57,0.15,1.02,0.46,1.35c0.31,0.33,0.72,0.5,1.23,0.5
		c0.51,0,0.92-0.17,1.23-0.5s0.46-0.77,0.46-1.33s-0.15-1-0.46-1.33c-0.31-0.33-0.72-0.5-1.23-0.5c-0.5,0-0.91,0.17-1.22,0.5
		C183.64,64.92,183.49,65.36,183.49,65.89z"/>
	<path d="M189.4,60.69c0-0.23,0.08-0.43,0.25-0.6c0.17-0.17,0.37-0.25,0.6-0.25c0.24,0,0.44,0.08,0.61,0.25
		c0.17,0.16,0.25,0.36,0.25,0.6c0,0.24-0.08,0.44-0.25,0.61c-0.16,0.17-0.36,0.25-0.6,0.25c-0.24,0-0.44-0.08-0.61-0.25
		C189.49,61.14,189.4,60.93,189.4,60.69z M190.92,63.06v8.79h-1.31v-8.79H190.92z"/>
	<path d="M197.76,66.21h-4.08c0.04,0.47,0.19,0.84,0.46,1.12c0.27,0.27,0.61,0.41,1.03,0.41c0.33,0,0.6-0.08,0.81-0.23
		c0.21-0.16,0.45-0.44,0.72-0.86l1.11,0.62c-0.17,0.29-0.35,0.54-0.54,0.75c-0.19,0.21-0.4,0.38-0.61,0.51
		c-0.22,0.13-0.45,0.23-0.71,0.29s-0.53,0.09-0.82,0.09c-0.85,0-1.53-0.27-2.04-0.82c-0.51-0.55-0.77-1.28-0.77-2.18
		c0-0.9,0.25-1.63,0.75-2.18c0.5-0.55,1.17-0.82,2-0.82c0.84,0,1.5,0.27,1.99,0.8c0.48,0.53,0.72,1.26,0.72,2.2L197.76,66.21z
		 M196.41,65.14c-0.18-0.7-0.62-1.05-1.33-1.05c-0.16,0-0.31,0.02-0.45,0.07c-0.14,0.05-0.27,0.12-0.38,0.21
		c-0.12,0.09-0.21,0.2-0.29,0.33c-0.08,0.13-0.14,0.27-0.19,0.44H196.41z"/>
	<path d="M203.63,63.3v1.75c-0.3-0.37-0.57-0.62-0.81-0.75c-0.23-0.14-0.51-0.21-0.82-0.21c-0.5,0-0.91,0.17-1.23,0.52
		c-0.33,0.35-0.49,0.78-0.49,1.3c0,0.53,0.16,0.97,0.47,1.31c0.32,0.34,0.73,0.51,1.22,0.51c0.32,0,0.59-0.07,0.83-0.2
		c0.23-0.13,0.51-0.39,0.82-0.77v1.74c-0.53,0.28-1.07,0.41-1.6,0.41c-0.88,0-1.62-0.28-2.21-0.85c-0.59-0.57-0.89-1.28-0.89-2.13
		s0.3-1.57,0.9-2.15c0.6-0.58,1.34-0.88,2.21-0.88C202.6,62.9,203.13,63.03,203.63,63.3z"/>
	<path d="M206.26,64.28v4.46h-1.31v-4.46h-0.56v-1.23h0.56v-2.09h1.31v2.09h1.02v1.23H206.26z"/>
</g>
<path class="st0" d="M4.49,70.79c10.93-8.83,20.65-3.02,20.33-14.88c-0.3-11.27-18.43-8.28-18.43-19.2
	c0-11.67,18.43-9.3,18.43-17.51c0-12.68-13.34-10.73-18.43-14.31"/>
<path class="st0" d="M24.83,70.79C13.9,61.96,4.18,67.76,4.5,55.91c0.3-11.27,18.43-8.28,18.43-19.2c0-11.67-18.43-9.3-18.43-17.51
	c0-12.68,13.34-10.73,18.43-14.31"/>
<line class="st1" x1="5.99" y1="13.08" x2="23.16" y2="12.81"/>
<line class="st1" x1="4.16" y1="17.41" x2="24.5" y2="17.41"/>
<line class="st1" x1="6.07" y1="21.55" x2="23.74" y2="21.59"/>
<line class="st1" x1="7.57" y1="32.21" x2="21.8" y2="32.33"/>
<line class="st1" x1="6.39" y1="36.71" x2="22.92" y2="36.71"/>
<line class="st1" x1="7.65" y1="40.65" x2="21.73" y2="40.59"/>
<line class="st1" x1="4.99" y1="56.38" x2="24.83" y2="56.33"/>
<line class="st1" x1="6.07" y1="51.67" x2="23.57" y2="51.65"/>
<line class="st1" x1="5.38" y1="61.05" x2="24.06" y2="60.78"/>
</svg>
