<?xml version="1.0" encoding="UTF-8"?>
<svg id="Layer_1" data-name="Layer 1" xmlns="http://www.w3.org/2000/svg" viewBox="0 0 205.42 68.98">
  <defs>
    <style>
      .cls-1 {
        letter-spacing: 0em;
      }

      .cls-2 {
        font-family: Futura-Medium, Futura;
        font-size: 11.96px;
        font-weight: 500;
      }

      .cls-2, .cls-3 {
        fill: #231f20;
      }

      .cls-4 {
        letter-spacing: 0em;
      }

      .cls-5 {
        letter-spacing: 0em;
      }

      .cls-6 {
        letter-spacing: 0em;
      }

      .cls-7 {
        letter-spacing: 0em;
      }

      .cls-8 {
        letter-spacing: 0em;
      }

      .cls-3 {
        font-family: Rockwell-Regular, Rockwell;
        font-size: 57.02px;
      }

      .cls-9 {
        stroke-width: 2px;
      }

      .cls-9, .cls-10 {
        fill: none;
        stroke: #231f20;
        stroke-miterlimit: 10;
      }
    </style>
  </defs>
  <text class="cls-3" transform="translate(23.86 49.49)"><tspan x="0" y="0">WSGP</tspan></text>
  <text class="cls-2" transform="translate(25.11 65.53)"><tspan x="0" y="0">Whi</tspan><tspan class="cls-8" x="22.23" y="0">t</tspan><tspan class="cls-6" x="25.6" y="0">e Shephe</tspan><tspan class="cls-5" x="76.42" y="0">r</tspan><tspan class="cls-1" x="80.81" y="0">d Gen</tspan><tspan class="cls-7" x="114.93" y="0">e</tspan><tspan x="121.65" y="0">tics P</tspan><tspan class="cls-4" x="148.61" y="0">r</tspan><tspan x="152.98" y="0">oject</tspan></text>
  <path class="cls-9" d="m1,67.57c10.93-8.83,20.65-3.02,20.33-14.88S2.9,44.4,2.9,33.49c0-11.67,18.43-9.3,18.43-17.51,0-12.68-13.34-10.73-18.43-14.31"/>
  <path class="cls-9" d="m21.34,67.57c-10.93-8.83-20.65-3.02-20.33-14.88.3-11.27,18.43-8.28,18.43-19.2,0-11.67-18.43-9.3-18.43-17.51,0-12.68,13.34-10.73,18.43-14.31"/>
  <line class="cls-10" x1="2.5" y1="9.86" x2="19.67" y2="9.59"/>
  <line class="cls-10" x1=".67" y1="14.19" x2="21.01" y2="14.19"/>
  <line class="cls-10" x1="2.58" y1="18.33" x2="20.26" y2="18.37"/>
  <line class="cls-10" x1="4.09" y1="29" x2="18.32" y2="29.11"/>
  <line class="cls-10" x1="2.9" y1="33.49" x2="19.43" y2="33.49"/>
  <line class="cls-10" x1="4.16" y1="37.43" x2="18.25" y2="37.37"/>
  <line class="cls-10" x1="1.5" y1="53.16" x2="21.34" y2="53.11"/>
  <line class="cls-10" x1="2.58" y1="48.45" x2="20.08" y2="48.43"/>
  <line class="cls-10" x1="1.89" y1="57.84" x2="20.57" y2="57.57"/>
</svg>